<?xml version="1.0" encoding="utf-8"?>
<!-- Generator: Adobe Illustrator 21.1.0, SVG Export Plug-In . SVG Version: 6.00 Build 0)  -->
<svg version="1.1" id="Слой_2" xmlns="http://www.w3.org/2000/svg" xmlns:xlink="http://www.w3.org/1999/xlink" x="0px" y="0px"
	 viewBox="0 0 612 792" style="enable-background:new 0 0 612 792;" xml:space="preserve">
<style type="text/css">
	.st0{fill:#3498DB;stroke:#3498DB;stroke-width:0.75;stroke-miterlimit:10;}
	.st1{fill:none;stroke:#3498DB;stroke-width:3;stroke-miterlimit:10;}
	.st2{fill:#FFFFFF;stroke:#3498DB;stroke-width:0.75;stroke-miterlimit:10;}
	.st3{fill:#3498DB;}
	.st4{font-family:'Rockwell-Bold';}
	.st5{font-size:50.0954px;}
	.st6{fill:#F9F9F9;stroke:#3498DB;stroke-width:0.5;stroke-miterlimit:10;}
</style>
<path class="st0" d="M594.8,432.1L594.8,432.1c0,1.9-1.5,3.4-3.4,3.4H26.1c-1.9,0-3.4-1.5-3.4-3.4v0c0-1.9,1.5-3.4,3.4-3.4h565.3
	C593.3,428.7,594.8,430.2,594.8,432.1z"/>
<polygon class="st1" points="532.4,431.7 532.3,438.4 531.9,475 307.2,601.6 85.1,470.2 85.5,438.4 85.6,431.7 110.9,431.7 
	110.8,438.4 110.7,455.6 307.5,572 506.7,459.8 507,438.4 507,431.7 "/>
<path class="st0" d="M594.8,339.5L594.8,339.5c0-1.9-1.5-3.4-3.4-3.4H26.1c-1.9,0-3.4,1.5-3.4,3.4v0c0,1.9,1.5,3.4,3.4,3.4h565.3
	C593.3,342.8,594.8,341.3,594.8,339.5z"/>
<polygon class="st1" points="532.4,339.8 532.3,333.1 531.9,296.6 307.2,170 85.1,301.3 85.5,333.1 85.6,339.8 110.9,339.8 
	110.8,333.1 110.7,315.9 307.5,199.5 506.7,311.7 507,333.1 507,339.8 "/>
<line class="st2" x1="228.2" y1="277.1" x2="228.2" y2="277.1"/>
<line class="st2" x1="390" y1="284.4" x2="390" y2="284.4"/>
<text transform="matrix(1 0 0 1 91.6943 402.373)" class="st3 st4 st5">SAMITTECHNOLOGY</text>
<g>
	<g>
		<path class="st3" d="M358.5,527v-40.1c0-0.7-0.5-1.3-1.2-1.6l-18.6-5.7c0,0,0-0.1,0-0.1c0-3.3-2.7-6-6-6c-2,0-3.8,1-4.9,2.5v-31.3
			c0-0.9-0.7-1.6-1.6-1.6h-30.5c-0.4,0-0.8,0.2-1.2,0.5c-0.3,0.3-0.5,0.7-0.5,1.2l0,17.2c-2.5,0.7-4.3,3-4.3,5.7
			c0,1,0.3,1.9,0.7,2.8l-19.7-11.3c-0.5-0.3-1.1-0.3-1.6,0s-0.8,0.8-0.8,1.4v16.4c-2.4,0.8-4.2,3-4.2,5.7c0,3,2.3,5.5,5.2,5.9
			l-9.8,7.6c-0.4,0.3-0.6,0.8-0.6,1.3V527c-2.5,0.7-4.3,3-4.3,5.7c0,3.3,2.7,6,6,6c3.3,0,6-2.7,6-6c0-2.7-1.8-5-4.3-5.7v-28.8
			l15.8-12.2l0,41c-2.5,0.7-4.3,3-4.3,5.7c0,3.3,2.7,6,6,6c3.3,0,6-2.7,6-6c0-2.7-1.8-5-4.3-5.7l0-44.3c0-0.6-0.4-1.2-0.9-1.5
			c-0.5-0.3-1.2-0.2-1.7,0.2l-2.6,2c0-0.3,0.1-0.5,0.1-0.8c0-2.8-1.9-5.1-4.5-5.8v-13.5l22.5,12.9l0,50.7c-2.5,0.7-4.3,3-4.3,5.7
			c0,3.3,2.7,6,6,6c3.3,0,6-2.7,6-6c0-2.7-1.8-5-4.3-5.7l0-51.7c0-0.6-0.3-1.1-0.8-1.4l-0.5-0.3c3.2-0.1,5.7-2.7,5.7-5.9
			c0-2.7-1.8-5-4.3-5.7l0-15.5h27.3V527c-2.5,0.7-4.3,3-4.3,5.7c0,3.3,2.7,6,6,6s6-2.7,6-6c0-2.7-1.8-5-4.3-5.7v-44
			c1.1,1.5,2.9,2.5,4.9,2.5c2.1,0,3.9-1.1,5-2.7l17.4,5.3V527c-2.5,0.7-4.3,3-4.3,5.7c0,3.3,2.7,6,6,6c3.3,0,6-2.7,6-6
			C362.8,530,361,527.7,358.5,527z M263.4,532.7c0,1.5-1.2,2.7-2.7,2.7c-1.5,0-2.7-1.2-2.7-2.7c0-1.5,1.2-2.7,2.7-2.7
			C262.2,530,263.4,531.2,263.4,532.7z M279.7,530c1.5,0,2.7,1.2,2.7,2.7c0,1.5-1.2,2.7-2.7,2.7c-1.5,0-2.7-1.2-2.7-2.7
			C277,531.2,278.2,530,279.7,530z M272.9,482.7c0,1.5-1.2,2.7-2.7,2.7c-1.5,0-2.7-1.2-2.7-2.7s1.2-2.7,2.7-2.7
			C271.7,480,272.9,481.2,272.9,482.7z M298.5,532.7c0,1.5-1.2,2.7-2.7,2.7c-1.5,0-2.7-1.2-2.7-2.7c0-1.5,1.2-2.7,2.7-2.7
			C297.3,530,298.5,531.2,298.5,532.7z M298.5,467.7c0,1.5-1.2,2.7-2.7,2.7c-1.5,0-2.7-1.2-2.7-2.7s1.2-2.7,2.7-2.7
			C297.3,465,298.5,466.2,298.5,467.7z M329,532.7c0,1.5-1.2,2.7-2.7,2.7c-1.5,0-2.7-1.2-2.7-2.7c0-1.5,1.2-2.7,2.7-2.7
			C327.8,530,329,531.2,329,532.7z M332.8,482.3c-1.5,0-2.7-1.2-2.7-2.7s1.2-2.7,2.7-2.7c1.5,0,2.7,1.2,2.7,2.7
			S334.3,482.3,332.8,482.3z M356.8,535.5c-1.5,0-2.7-1.2-2.7-2.7s1.2-2.7,2.7-2.7c1.5,0,2.7,1.2,2.7,2.7S358.3,535.5,356.8,535.5z"
			/>
		<rect x="303.2" y="450.7" class="st3" width="6" height="6"/>
		<rect x="303.2" y="459.9" class="st3" width="6" height="6"/>
		<rect x="303.2" y="469.1" class="st3" width="6" height="6"/>
		<rect x="303.2" y="478.4" class="st3" width="6" height="6"/>
		<rect x="303.2" y="487.6" class="st3" width="6" height="6"/>
		<rect x="303.2" y="496.8" class="st3" width="6" height="6"/>
		<rect x="303.2" y="506" class="st3" width="6" height="6"/>
		<rect x="303.2" y="515.2" class="st3" width="6" height="6"/>
		<rect x="303.2" y="524.4" class="st3" width="6" height="6"/>
		<rect x="312.4" y="450.7" class="st3" width="6" height="6"/>
		<rect x="312.4" y="459.9" class="st3" width="6" height="6"/>
		<rect x="312.4" y="469.1" class="st3" width="6" height="6"/>
		<rect x="312.4" y="478.4" class="st3" width="6" height="6"/>
		<rect x="312.4" y="487.6" class="st3" width="6" height="6"/>
		<rect x="312.4" y="496.8" class="st3" width="6" height="6"/>
		<rect x="312.4" y="506" class="st3" width="6" height="6"/>
		<rect x="312.4" y="515.2" class="st3" width="6" height="6"/>
		<rect x="312.4" y="524.4" class="st3" width="6" height="6"/>
		<rect x="334.1" y="487.6" class="st3" width="6" height="6"/>
		<rect x="334.1" y="496.8" class="st3" width="6" height="6"/>
		<rect x="334.1" y="506" class="st3" width="6" height="6"/>
		<rect x="334.1" y="515.2" class="st3" width="6" height="6"/>
		<rect x="334.1" y="524.4" class="st3" width="6" height="6"/>
		<rect x="343.3" y="487.6" class="st3" width="6" height="6"/>
		<rect x="343.3" y="496.8" class="st3" width="6" height="6"/>
		<rect x="343.3" y="506" class="st3" width="6" height="6"/>
		<rect x="343.3" y="515.2" class="st3" width="6" height="6"/>
		<rect x="343.3" y="524.4" class="st3" width="6" height="6"/>
		<rect x="284.9" y="478.4" class="st3" width="6" height="6"/>
		<rect x="284.9" y="487.6" class="st3" width="6" height="6"/>
		<rect x="284.9" y="496.8" class="st3" width="6" height="6"/>
		<rect x="284.9" y="506" class="st3" width="6" height="6"/>
		<rect x="284.9" y="515.2" class="st3" width="6" height="6"/>
		<rect x="268.7" y="496.8" class="st3" width="6" height="6"/>
		<rect x="268.7" y="506" class="st3" width="6" height="6"/>
		<rect x="268.7" y="515.2" class="st3" width="6" height="6"/>
	</g>
</g>
<line class="st6" x1="179.3" y1="249.3" x2="179.3" y2="249.3"/>
<line class="st6" x1="187.2" y1="249.3" x2="187.2" y2="249.3"/>
<line class="st6" x1="195.1" y1="249.3" x2="195.1" y2="249.3"/>
<line class="st6" x1="203" y1="249.3" x2="203" y2="249.3"/>
<line class="st6" x1="179.3" y1="261.8" x2="179.3" y2="261.8"/>
<path class="st6" d="M187.2,261.8"/>
<path class="st6" d="M191.6,272"/>
<line class="st2" x1="310.1" y1="229" x2="310.1" y2="229"/>
<g>
	<path class="st1" d="M177.8,332.9l0.1-38.9h4.5c0,0,1.3-2.3,3-3.5s3.1-2,4.1-1.8c1,0.2,2.3,0.3,2.8,0.6c0.4,0.3,1.2,0.6,1.2,0.6
		l1-31.9c0,0-1-1.5-1.7-3.2c-0.7-1.7-0.8-5-0.8-5h13.7c0,0,0.3,2.9,0,4.5c-0.3,1.6-1.3,3.6-1.3,3.6l-0.3,2.8l7.6-0.3l18.1,10.3
		l7.8,0.3l1.2-0.1c0,0,1,1.1,0.6,1.9c-0.4,0.8-1.2,2-1.3,2.9c-0.2,0.9,0.5,44.3,0.5,44.3l1.9,0.1v-5.3l10.8,0.1v-22.5
		c0,0,0.4-1.1,1.9-2.3s1.9-1.3,2.3-0.9c0.3,0.3,2.3,1.7,2.3,2.3s0,9.4,0,9.4l3.3-0.1v-6.3c0,0,1.3-3.8,4.2-4.9
		c2.8-1.2,3.4-1.3,3.4-1.3v-1.7h1.2v1.8c0,0,1.8,0.3,2.7,1c0.8,0.7,3.7,3.2,4.2,5.1s0.3,6.4,0.3,6.4h12.6v-23.3l45.3,0.2v22.8
		l32,0.2c0,0-0.6-7,0-7.8c0.6-0.8,1.3-2.4,1.9-2.9s1-1.8,1-1.8s1.1-0.3,1.3,0.7c0.2,0.9,0.7,1.5,1,1.8s1.2,1.3,1.2,1.6
		s0,27.8,0,27.8h2.6l1.1-45c0,0-1.3-1.8-1.4-2.5c-0.2-0.7-0.3-2.3-0.3-2.3l-0.1-1.1l9.8-0.1c0,0,0.1,2.3,0,2.9
		c-0.1,0.6-1.1,3-1.3,3.8c-0.2,0.8,0.3,30.1,0.3,30.1h1.6V271l13.7-10.1l5.2-0.1v-6.3c0,0-1.3-2.9-1.8-4.2c-0.4-1.3-0.5-4-0.5-4h14
		v2.3c0,0-1,1.8-1.4,2.8c-0.4,1-1.3,1.6-1.3,4.9c0.1,3.3,0,25.3,0,25.3s0.8,1.1,1.5,0.2c0.7-0.9,2.3-3.4,3.3-3.9s2-0.9,2-0.9v-2.8
		h2.1v2.7c0,0,1.5,0.1,2.3,0.8s5.1,2.9,6.5,7c1.4,4.1,1.8,12.4,1.8,12.4v0.5h4v6.4v0.4h9.3v29L177.8,332.9z"/>
	<path class="st1" d="M265.5,315.7h-7V309c0-1.9,1.6-3.5,3.5-3.5l0,0c1.9,0,3.5,1.6,3.5,3.5V315.7z"/>
	<path class="st1" d="M273.4,315.7h-7V309c0-1.9,1.6-3.5,3.5-3.5l0,0c1.9,0,3.5,1.6,3.5,3.5V315.7z"/>
	<path class="st1" d="M281.3,315.7h-7V309c0-1.9,1.6-3.5,3.5-3.5l0,0c1.9,0,3.5,1.6,3.5,3.5V315.7z"/>
	<path class="st1" d="M289.2,315.7h-7V309c0-1.9,1.6-3.5,3.5-3.5h0c1.9,0,3.5,1.6,3.5,3.5V315.7z"/>
	<path class="st1" d="M265.5,328.1h-7v-6.7c0-1.9,1.6-3.5,3.5-3.5l0,0c1.9,0,3.5,1.6,3.5,3.5V328.1z"/>
	<path class="st1" d="M273.4,328.1h-7v-6.7c0-1.9,1.6-3.5,3.5-3.5l0,0c1.9,0,3.5,1.6,3.5,3.5V328.1z"/>
	<path class="st1" d="M281.3,328.1h-7v-6.7c0-1.9,1.6-3.5,3.5-3.5l0,0c1.9,0,3.5,1.6,3.5,3.5V328.1z"/>
	<path class="st1" d="M289.2,328.1h-7v-6.7c0-1.9,1.6-3.5,3.5-3.5h0c1.9,0,3.5,1.6,3.5,3.5V328.1z"/>
	<path class="st1" d="M343.4,315.7h-7V309c0-1.9,1.6-3.5,3.5-3.5l0,0c1.9,0,3.5,1.6,3.5,3.5V315.7z"/>
	<path class="st1" d="M351.3,315.7h-7V309c0-1.9,1.6-3.5,3.5-3.5l0,0c1.9,0,3.5,1.6,3.5,3.5V315.7z"/>
	<path class="st1" d="M359.2,315.7h-7V309c0-1.9,1.6-3.5,3.5-3.5h0c1.9,0,3.5,1.6,3.5,3.5V315.7z"/>
	<path class="st1" d="M367.1,315.7h-7V309c0-1.9,1.6-3.5,3.5-3.5l0,0c1.9,0,3.5,1.6,3.5,3.5V315.7z"/>
	<path class="st1" d="M343.4,328.1h-7v-6.7c0-1.9,1.6-3.5,3.5-3.5l0,0c1.9,0,3.5,1.6,3.5,3.5V328.1z"/>
	<path class="st1" d="M351.3,328.1h-7v-6.7c0-1.9,1.6-3.5,3.5-3.5l0,0c1.9,0,3.5,1.6,3.5,3.5V328.1z"/>
	<path class="st1" d="M359.2,328.1h-7v-6.7c0-1.9,1.6-3.5,3.5-3.5h0c1.9,0,3.5,1.6,3.5,3.5V328.1z"/>
	<path class="st1" d="M367.1,328.1h-7v-6.7c0-1.9,1.6-3.5,3.5-3.5l0,0c1.9,0,3.5,1.6,3.5,3.5V328.1z"/>
	<path class="st1" d="M323.7,326.6h-23v-27.3c0-6.4,5.1-11.5,11.5-11.5h0c6.4,0,11.5,5.1,11.5,11.5V326.6z"/>
	<path class="st1" d="M228,329.2l-11.2,0.4l0.8-37c0-0.1,0,0.8,0,0.7c0.1-1.2,1.9-16,4.9-16h0c3,0,4.7,16.6,4.8,17.7
		c0,0,0,0.1,0,0.1L228,329.2z"/>
	<path class="st1" d="M396.4,330.2l-7.3,0.4l0.5-32.1c0,0,0,0.7,0,0.6c0.1-1,1.2-13.9,3.2-13.9h0c1.9,0,3.1,14.4,3.1,15.4
		c0,0,0,0.1,0,0.1L396.4,330.2z"/>
</g>
</svg>
