<?xml version="1.0" encoding="utf-8"?>
<!-- Generator: Adobe Illustrator 21.1.0, SVG Export Plug-In . SVG Version: 6.00 Build 0)  -->
<svg version="1.1" id="Слой_2" xmlns="http://www.w3.org/2000/svg" xmlns:xlink="http://www.w3.org/1999/xlink" x="0px" y="0px"
	 viewBox="0 0 589.5 501" style="enable-background:new 0 0 589.5 501;" xml:space="preserve">
<style type="text/css">
	.st0{fill:#3498DB;stroke:#3498DB;stroke-width:0.75;stroke-miterlimit:10;}
	.st1{fill:none;stroke:#3498DB;stroke-width:3;stroke-miterlimit:10;}
	.st2{fill:#FFFFFF;stroke:#3498DB;stroke-width:0.75;stroke-miterlimit:10;}
	.st3{fill:#3498DB;}
	.st4{font-family:'Stencil';}
	.st5{font-size:50.0954px;}
	.st6{fill:#F9F9F9;stroke:#3498DB;stroke-width:0.5;stroke-miterlimit:10;}
	.st7{fill:#FFFFFF;stroke:#3498DB;stroke-width:0.5;stroke-miterlimit:10;}
	.st8{fill:#FFFFFF;}
</style>
<path class="st0" d="M579.8,324.6L579.8,324.6c0,1.9-1.5,3.4-3.4,3.4H11.2c-1.9,0-3.4-1.5-3.4-3.4v0c0-1.9,1.5-3.4,3.4-3.4h565.3
	C578.3,321.2,579.8,322.7,579.8,324.6z"/>
<polygon class="st1" points="517.4,324.2 517.3,331 516.9,367.5 292.2,494.1 70.2,362.7 70.5,331 70.6,324.2 95.9,324.2 95.9,331 
	95.7,348.1 292.5,464.5 491.8,352.3 492,331 492.1,324.2 "/>
<path class="st0" d="M579.8,186L579.8,186c0-1.9-1.5-3.4-3.4-3.4H11.2c-1.9,0-3.4,1.5-3.4,3.4v0c0,1.9,1.5,3.4,3.4,3.4h565.3
	C578.3,189.3,579.8,187.8,579.8,186z"/>
<polygon class="st1" points="517.4,186.3 517.3,179.6 516.9,143.1 292.2,16.5 70.2,147.8 70.5,179.6 70.6,186.3 95.9,186.3 
	95.9,179.6 95.7,162.5 292.5,46 491.8,158.2 492,179.6 492.1,186.3 "/>
<line class="st2" x1="213.2" y1="123.6" x2="213.2" y2="123.6"/>
<line class="st2" x1="375.1" y1="131" x2="375.1" y2="131"/>
<text transform="matrix(1 0 0 1 48.9946 276.108)" class="st3 st4 st5">SAM-IT-TECHNOLOGY</text>
<g>
	<g>
		<path class="st3" d="M343.5,419.5v-40.1c0-0.7-0.5-1.3-1.2-1.6l-18.6-5.7c0,0,0-0.1,0-0.1c0-3.3-2.7-6-6-6c-2,0-3.8,1-4.9,2.5
			v-31.3c0-0.9-0.7-1.6-1.6-1.6h-30.5c-0.4,0-0.8,0.2-1.2,0.5c-0.3,0.3-0.5,0.7-0.5,1.2l0,17.2c-2.5,0.7-4.3,3-4.3,5.7
			c0,1,0.3,1.9,0.7,2.8l-19.7-11.3c-0.5-0.3-1.1-0.3-1.6,0s-0.8,0.8-0.8,1.4v16.4c-2.4,0.8-4.2,3-4.2,5.7c0,3,2.3,5.5,5.2,5.9
			l-9.8,7.6c-0.4,0.3-0.6,0.8-0.6,1.3v29.6c-2.5,0.7-4.3,3-4.3,5.7c0,3.3,2.7,6,6,6c3.3,0,6-2.7,6-6c0-2.7-1.8-5-4.3-5.7v-28.8
			l15.8-12.2l0,41c-2.5,0.7-4.3,3-4.3,5.7c0,3.3,2.7,6,6,6c3.3,0,6-2.7,6-6c0-2.7-1.8-5-4.3-5.7l0-44.3c0-0.6-0.4-1.2-0.9-1.5
			c-0.5-0.3-1.2-0.2-1.7,0.2l-2.6,2c0-0.3,0.1-0.5,0.1-0.8c0-2.8-1.9-5.1-4.5-5.8v-13.5l22.5,12.9l0,50.7c-2.5,0.7-4.3,3-4.3,5.7
			c0,3.3,2.7,6,6,6c3.3,0,6-2.7,6-6c0-2.7-1.8-5-4.3-5.7l0-51.7c0-0.6-0.3-1.1-0.8-1.4l-0.5-0.3c3.2-0.1,5.7-2.7,5.7-5.9
			c0-2.7-1.8-5-4.3-5.7l0-15.5h27.3v80.6c-2.5,0.7-4.3,3-4.3,5.7c0,3.3,2.7,6,6,6c3.3,0,6-2.7,6-6c0-2.7-1.8-5-4.3-5.7v-44
			c1.1,1.5,2.9,2.5,4.9,2.5c2.1,0,3.9-1.1,5-2.7l17.4,5.3v38.9c-2.5,0.7-4.3,3-4.3,5.7c0,3.3,2.7,6,6,6s6-2.7,6-6
			C347.8,422.5,346,420.2,343.5,419.5z M248.4,425.2c0,1.5-1.2,2.7-2.7,2.7c-1.5,0-2.7-1.2-2.7-2.7c0-1.5,1.2-2.7,2.7-2.7
			C247.2,422.5,248.4,423.8,248.4,425.2z M264.7,422.5c1.5,0,2.7,1.2,2.7,2.7c0,1.5-1.2,2.7-2.7,2.7c-1.5,0-2.7-1.2-2.7-2.7
			C262,423.8,263.2,422.5,264.7,422.5z M257.9,375.2c0,1.5-1.2,2.7-2.7,2.7c-1.5,0-2.7-1.2-2.7-2.7s1.2-2.7,2.7-2.7
			C256.7,372.5,257.9,373.7,257.9,375.2z M283.5,425.2c0,1.5-1.2,2.7-2.7,2.7c-1.5,0-2.7-1.2-2.7-2.7c0-1.5,1.2-2.7,2.7-2.7
			C282.3,422.5,283.5,423.8,283.5,425.2z M283.5,360.2c0,1.5-1.2,2.7-2.7,2.7c-1.5,0-2.7-1.2-2.7-2.7c0-1.5,1.2-2.7,2.7-2.7
			C282.3,357.5,283.5,358.7,283.5,360.2z M314,425.2c0,1.5-1.2,2.7-2.7,2.7c-1.5,0-2.7-1.2-2.7-2.7c0-1.5,1.2-2.7,2.7-2.7
			C312.8,422.5,314,423.8,314,425.2z M317.8,374.8c-1.5,0-2.7-1.2-2.7-2.7s1.2-2.7,2.7-2.7c1.5,0,2.7,1.2,2.7,2.7
			S319.3,374.8,317.8,374.8z M341.9,428c-1.5,0-2.7-1.2-2.7-2.7s1.2-2.7,2.7-2.7c1.5,0,2.7,1.2,2.7,2.7S343.4,428,341.9,428z"/>
		<rect x="288.2" y="343.2" class="st3" width="6" height="6"/>
		<rect x="288.2" y="352.4" class="st3" width="6" height="6"/>
		<rect x="288.2" y="361.7" class="st3" width="6" height="6"/>
		<rect x="288.2" y="370.9" class="st3" width="6" height="6"/>
		<rect x="288.2" y="380.1" class="st3" width="6" height="6"/>
		<rect x="288.2" y="389.3" class="st3" width="6" height="6"/>
		<rect x="288.2" y="398.5" class="st3" width="6" height="6"/>
		<rect x="288.2" y="407.7" class="st3" width="6" height="6"/>
		<rect x="288.2" y="416.9" class="st3" width="6" height="6"/>
		<rect x="297.4" y="343.2" class="st3" width="6" height="6"/>
		<rect x="297.4" y="352.4" class="st3" width="6" height="6"/>
		<rect x="297.4" y="361.7" class="st3" width="6" height="6"/>
		<rect x="297.4" y="370.9" class="st3" width="6" height="6"/>
		<rect x="297.4" y="380.1" class="st3" width="6" height="6"/>
		<rect x="297.4" y="389.3" class="st3" width="6" height="6"/>
		<rect x="297.4" y="398.5" class="st3" width="6" height="6"/>
		<rect x="297.4" y="407.7" class="st3" width="6" height="6"/>
		<rect x="297.4" y="416.9" class="st3" width="6" height="6"/>
		<rect x="319.1" y="380.1" class="st3" width="6" height="6"/>
		<rect x="319.1" y="389.3" class="st3" width="6" height="6"/>
		<rect x="319.1" y="398.5" class="st3" width="6" height="6"/>
		<rect x="319.1" y="407.7" class="st3" width="6" height="6"/>
		<rect x="319.1" y="416.9" class="st3" width="6" height="6"/>
		<rect x="328.3" y="380.1" class="st3" width="6" height="6"/>
		<rect x="328.3" y="389.3" class="st3" width="6" height="6"/>
		<rect x="328.3" y="398.5" class="st3" width="6" height="6"/>
		<rect x="328.3" y="407.7" class="st3" width="6" height="6"/>
		<rect x="328.3" y="416.9" class="st3" width="6" height="6"/>
		<rect x="269.9" y="370.9" class="st3" width="6" height="6"/>
		<rect x="269.9" y="380.1" class="st3" width="6" height="6"/>
		<rect x="269.9" y="389.3" class="st3" width="6" height="6"/>
		<rect x="269.9" y="398.5" class="st3" width="6" height="6"/>
		<rect x="269.9" y="407.7" class="st3" width="6" height="6"/>
		<rect x="253.7" y="389.3" class="st3" width="6" height="6"/>
		<rect x="253.7" y="398.5" class="st3" width="6" height="6"/>
		<rect x="253.7" y="407.7" class="st3" width="6" height="6"/>
	</g>
</g>
<line class="st6" x1="164.3" y1="95.8" x2="164.3" y2="95.8"/>
<line class="st6" x1="172.2" y1="95.8" x2="172.2" y2="95.8"/>
<line class="st6" x1="180.1" y1="95.8" x2="180.1" y2="95.8"/>
<line class="st6" x1="188" y1="95.8" x2="188" y2="95.8"/>
<line class="st6" x1="164.3" y1="108.3" x2="164.3" y2="108.3"/>
<path class="st6" d="M172.2,108.3"/>
<path class="st6" d="M176.6,118.5"/>
<line class="st2" x1="295.1" y1="75.5" x2="295.1" y2="75.5"/>
<g>
	<path class="st3" d="M162.9,179.4l0.1-38.9h4.5c0,0,1.3-2.3,3-3.5s3.1-2,4.1-1.8c1,0.2,2.3,0.3,2.8,0.6c0.4,0.3,1.2,0.6,1.2,0.6
		l1-31.9c0,0-1-1.5-1.7-3.2c-0.7-1.7-0.8-5-0.8-5h13.7c0,0,0.3,2.9,0,4.5c-0.3,1.6-1.3,3.6-1.3,3.6l-0.3,2.8l7.6-0.3l18.1,10.3
		l7.8,0.3l1.2-0.1c0,0,1,1.1,0.6,1.9c-0.4,0.8-1.2,2-1.3,2.9c-0.2,0.9,0.5,44.3,0.5,44.3l1.9,0.1v-5.3l10.8,0.1v-22.5
		c0,0,0.4-1.1,1.9-2.3s1.9-1.3,2.3-0.9s2.3,1.7,2.3,2.3s0,9.4,0,9.4l3.3-0.1v-6.3c0,0,1.3-3.8,4.2-4.9c2.8-1.2,3.4-1.3,3.4-1.3V133
		h1.2v1.8c0,0,1.8,0.3,2.7,1c0.8,0.7,3.7,3.2,4.2,5.1s0.3,6.4,0.3,6.4h12.6V124l45.3,0.2V147l32,0.2c0,0-0.6-7,0-7.8
		c0.6-0.8,1.3-2.4,1.9-2.9c0.6-0.5,1-1.8,1-1.8s1.1-0.3,1.3,0.7c0.2,0.9,0.7,1.5,1,1.8c0.3,0.3,1.2,1.3,1.2,1.6s0,27.8,0,27.8h2.6
		l1.1-45c0,0-1.3-1.8-1.4-2.5c-0.2-0.7-0.3-2.3-0.3-2.3l-0.1-1.1l9.8-0.1c0,0,0.1,2.3,0,2.9c-0.1,0.6-1.1,3-1.3,3.8
		s0.3,30.1,0.3,30.1h1.6v-34.8l13.7-10.1l5.2-0.1v-6.3c0,0-1.3-2.9-1.8-4.2c-0.4-1.3-0.5-4-0.5-4h14v2.3c0,0-1,1.8-1.4,2.8
		s-1.3,1.6-1.3,4.9c0.1,3.3,0,25.3,0,25.3s0.8,1.1,1.5,0.2c0.7-0.9,2.3-3.4,3.3-3.9c1.1-0.5,2-0.9,2-0.9v-2.8h2.1v2.7
		c0,0,1.5,0.1,2.3,0.8c0.8,0.7,5.1,2.9,6.5,7c1.4,4.1,1.8,12.4,1.8,12.4v0.5h4v6.4v0.4h9.3v29L162.9,179.4z"/>
	<path class="st6" d="M250.5,162.2h-7v-6.7c0-1.9,1.6-3.5,3.5-3.5h0c1.9,0,3.5,1.6,3.5,3.5V162.2z"/>
	<path class="st6" d="M258.4,162.2h-7v-6.7c0-1.9,1.6-3.5,3.5-3.5l0,0c1.9,0,3.5,1.6,3.5,3.5V162.2z"/>
	<path class="st6" d="M266.3,162.2h-7v-6.7c0-1.9,1.6-3.5,3.5-3.5l0,0c1.9,0,3.5,1.6,3.5,3.5V162.2z"/>
	<path class="st6" d="M274.2,162.2h-7v-6.7c0-1.9,1.6-3.5,3.5-3.5l0,0c1.9,0,3.5,1.6,3.5,3.5V162.2z"/>
	<path class="st6" d="M250.5,174.6h-7v-6.7c0-1.9,1.6-3.5,3.5-3.5h0c1.9,0,3.5,1.6,3.5,3.5V174.6z"/>
	<path class="st6" d="M258.4,174.6h-7v-6.7c0-1.9,1.6-3.5,3.5-3.5l0,0c1.9,0,3.5,1.6,3.5,3.5V174.6z"/>
	<path class="st6" d="M266.3,174.6h-7v-6.7c0-1.9,1.6-3.5,3.5-3.5l0,0c1.9,0,3.5,1.6,3.5,3.5V174.6z"/>
	<path class="st6" d="M274.2,174.6h-7v-6.7c0-1.9,1.6-3.5,3.5-3.5l0,0c1.9,0,3.5,1.6,3.5,3.5V174.6z"/>
	<path class="st7" d="M328.4,162.2h-7v-6.7c0-1.9,1.6-3.5,3.5-3.5h0c1.9,0,3.5,1.6,3.5,3.5V162.2z"/>
	<path class="st7" d="M336.3,162.2h-7v-6.7c0-1.9,1.6-3.5,3.5-3.5l0,0c1.9,0,3.5,1.6,3.5,3.5V162.2z"/>
	<path class="st7" d="M344.2,162.2h-7v-6.7c0-1.9,1.6-3.5,3.5-3.5l0,0c1.9,0,3.5,1.6,3.5,3.5V162.2z"/>
	<path class="st7" d="M352.1,162.2h-7v-6.7c0-1.9,1.6-3.5,3.5-3.5l0,0c1.9,0,3.5,1.6,3.5,3.5V162.2z"/>
	<path class="st7" d="M328.4,174.6h-7v-6.7c0-1.9,1.6-3.5,3.5-3.5h0c1.9,0,3.5,1.6,3.5,3.5V174.6z"/>
	<path class="st7" d="M336.3,174.6h-7v-6.7c0-1.9,1.6-3.5,3.5-3.5l0,0c1.9,0,3.5,1.6,3.5,3.5V174.6z"/>
	<path class="st7" d="M344.2,174.6h-7v-6.7c0-1.9,1.6-3.5,3.5-3.5l0,0c1.9,0,3.5,1.6,3.5,3.5V174.6z"/>
	<path class="st7" d="M352.1,174.6h-7v-6.7c0-1.9,1.6-3.5,3.5-3.5l0,0c1.9,0,3.5,1.6,3.5,3.5V174.6z"/>
	<path class="st8" d="M308.7,173.1h-23v-27.3c0-6.4,5.1-11.5,11.5-11.5h0c6.4,0,11.5,5.1,11.5,11.5V173.1z"/>
	<path class="st2" d="M213,175.7l-11.2,0.4l0.8-37c0-0.1,0,0.8,0,0.7c0.1-1.2,1.9-16,4.9-16h0c3,0,4.7,16.6,4.8,17.7
		c0,0,0,0.1,0,0.1L213,175.7z"/>
	<path class="st2" d="M381.5,176.7l-7.3,0.4l0.5-32.1c0,0,0,0.7,0,0.6c0.1-1,1.2-13.9,3.2-13.9l0,0c1.9,0,3.1,14.4,3.1,15.4
		c0,0,0,0.1,0,0.1L381.5,176.7z"/>
</g>
</svg>
